<?xml version="1.0" encoding="UTF-8"?>
<svg xmlns="http://www.w3.org/2000/svg" viewBox="0 0 520 320" role="img" aria-labelledby="title">
  <title id="title">Traditional dense process diagram</title>
  <rect width="520" height="320" rx="12" fill="#f8f4f4"/>
  <text x="24" y="36" font-family="sans-serif" font-size="13" font-weight="600" fill="#8b4040">Hard to read at a glance</text>
  <g opacity="0.85" stroke="#bbb" stroke-width="1.2" fill="#fff">
    <rect x="30" y="55" width="55" height="22" rx="3"/><rect x="95" y="48" width="48" height="22" rx="3"/>
    <rect x="160" y="62" width="60" height="22" rx="3"/><rect x="240" y="44" width="52" height="22" rx="3"/>
    <rect x="310" y="58" width="58" height="22" rx="3"/><rect x="390" y="50" width="50" height="22" rx="3"/>
    <rect x="60" y="100" width="62" height="22" rx="3"/><rect x="140" y="115" width="48" height="22" rx="3"/>
    <rect x="210" y="95" width="70" height="22" rx="3"/><rect x="300" y="108" width="55" height="22" rx="3"/>
    <rect x="380" y="98" width="60" height="22" rx="3"/><rect x="450" y="112" width="45" height="22" rx="3"/>
    <rect x="40" y="155" width="50" height="22" rx="3"/><rect x="110" y="168" width="65" height="22" rx="3"/>
    <rect x="200" y="150" width="58" height="22" rx="3"/><rect x="280" y="165" width="52" height="22" rx="3"/>
    <rect x="350" y="152" width="68" height="22" rx="3"/><rect x="430" y="160" width="55" height="22" rx="3"/>
    <rect x="70" y="210" width="60" height="22" rx="3"/><rect x="160" y="220" width="48" height="22" rx="3"/>
    <rect x="230" y="205" width="72" height="22" rx="3"/><rect x="320" y="218" width="50" height="22" rx="3"/>
    <rect x="390" y="208" width="58" height="22" rx="3"/><rect x="460" y="225" width="42" height="22" rx="3"/>
    <rect x="50" y="260" width="55" height="22" rx="3"/><rect x="130" y="268" width="62" height="22" rx="3"/>
    <rect x="220" y="255" width="50" height="22" rx="3"/><rect x="300" y="270" width="68" height="22" rx="3"/>
  </g>
  <g stroke="#ccc" stroke-width="1" fill="none">
    <path d="M85,66 L120,95 M143,70 L180,106 M220,73 L265,108 M342,69 L380,109"/>
    <path d="M91,122 L155,168 M175,127 L230,161 M350,120 L400,165 M410,160 L455,225"/>
    <path d="M120,177 L200,216 M270,177 L340,225 M390,180 L430,268"/>
  </g>
  <text x="24" y="305" font-family="sans-serif" font-size="11" fill="#777">Interviews ’ one giant static diagram</text>
</svg>
