<?xml version="1.0" encoding="UTF-8"?>
<svg xmlns="http://www.w3.org/2000/svg" viewBox="0 0 520 320" role="img" aria-labelledby="title">
  <title id="title">Structured editable process map</title>
  <rect width="520" height="320" rx="12" fill="#f2f8f6"/>
  <text x="24" y="36" font-family="sans-serif" font-size="13" font-weight="600" fill="#2a6e55">Structured &amp; searchable</text>
  <rect x="24" y="56" width="472" height="56" rx="8" fill="#e8f5e9" stroke="#b7d9bc"/>
  <rect x="24" y="124" width="472" height="96" rx="8" fill="#fff8e1" stroke="#e8d49a"/>
  <rect x="24" y="232" width="472" height="56" rx="8" fill="#e3f2fd" stroke="#a8cceb"/>
  <rect x="44" y="78" width="72" height="22" rx="5" fill="#fff" stroke="#7cb587"/>
  <rect x="140" y="78" width="90" height="22" rx="5" fill="#fff" stroke="#7cb587"/>
  <rect x="260" y="78" width="78" height="22" rx="5" fill="#fff" stroke="#7cb587"/>
  <rect x="44" y="146" width="80" height="22" rx="5" fill="#fff" stroke="#d4a72c"/>
  <rect x="150" y="146" width="100" height="22" rx="5" fill="#fff" stroke="#d4a72c"/>
  <rect x="280" y="146" width="88" height="22" rx="5" fill="#fff" stroke="#d4a72c"/>
  <rect x="400" y="146" width="72" height="22" rx="5" fill="#fff" stroke="#d4a72c"/>
  <rect x="44" y="182" width="95" height="22" rx="5" fill="#fff" stroke="#d4a72c"/>
  <rect x="44" y="254" width="85" height="22" rx="5" fill="#fff" stroke="#7aaed4"/>
  <rect x="160" y="254" width="92" height="22" rx="5" fill="#fff" stroke="#7aaed4"/>
  <text x="380" y="270" font-family="sans-serif" font-size="11" fill="#2a6e55">» auto diagram</text>
  <text x="24" y="305" font-family="sans-serif" font-size="11" fill="#777">Lanes · steps · systems · connections</text>
</svg>
